<svg width="30" height="30" viewBox="0 0 30 30" fill="none" xmlns="http://www.w3.org/2000/svg">
<g id="building">
<g id="Vector">
<path fill-rule="evenodd" clip-rule="evenodd" d="M27.6806 0.140405C27.8164 0.224394 27.9285 0.341678 28.0063 0.481136C28.0841 0.620593 28.1249 0.777604 28.125 0.93728V29.0623C28.125 29.3109 28.0262 29.5494 27.8504 29.7252C27.6746 29.901 27.4361 29.9998 27.1875 29.9998H21.5625C21.3139 29.9998 21.0754 29.901 20.8996 29.7252C20.7238 29.5494 20.625 29.3109 20.625 29.0623V26.2498H18.75V29.0623C18.75 29.3109 18.6512 29.5494 18.4754 29.7252C18.2996 29.901 18.0611 29.9998 17.8125 29.9998H0.9375C0.68886 29.9998 0.450403 29.901 0.274587 29.7252C0.0987721 29.5494 0 29.3109 0 29.0623V18.7498C0.000149338 18.5531 0.0621527 18.3614 0.177234 18.2019C0.292316 18.0424 0.454646 17.9232 0.64125 17.861L11.25 14.3248V8.43728C11.25 8.26332 11.2984 8.09279 11.3898 7.94477C11.4812 7.79676 11.612 7.67709 11.7675 7.59915L26.7675 0.0991545C26.9106 0.0275405 27.0696 -0.00626513 27.2294 0.000955275C27.3893 0.00817569 27.5446 0.0561819 27.6806 0.140405ZM11.25 16.301L1.875 19.4248V28.1248H11.25V16.301ZM13.125 28.1248H16.875V25.3123C16.875 25.0636 16.9738 24.8252 17.1496 24.6494C17.3254 24.4736 17.5639 24.3748 17.8125 24.3748H21.5625C21.8111 24.3748 22.0496 24.4736 22.2254 24.6494C22.4012 24.8252 22.5 25.0636 22.5 25.3123V28.1248H26.25V2.45415L13.125 9.01665V28.1248Z" fill="#212529"/>
<path d="M3.75 20.6248H5.625V22.4998H3.75V20.6248ZM7.5 20.6248H9.375V22.4998H7.5V20.6248ZM3.75 24.3748H5.625V26.2498H3.75V24.3748ZM7.5 24.3748H9.375V26.2498H7.5V24.3748ZM15 16.8748H16.875V18.7498H15V16.8748ZM18.75 16.8748H20.625V18.7498H18.75V16.8748ZM15 20.6248H16.875V22.4998H15V20.6248ZM18.75 20.6248H20.625V22.4998H18.75V20.6248ZM22.5 16.8748H24.375V18.7498H22.5V16.8748ZM22.5 20.6248H24.375V22.4998H22.5V20.6248ZM15 13.1248H16.875V14.9998H15V13.1248ZM18.75 13.1248H20.625V14.9998H18.75V13.1248ZM22.5 13.1248H24.375V14.9998H22.5V13.1248ZM15 9.37478H16.875V11.2498H15V9.37478ZM18.75 9.37478H20.625V11.2498H18.75V9.37478ZM22.5 9.37478H24.375V11.2498H22.5V9.37478ZM22.5 5.62478H24.375V7.49978H22.5V5.62478Z" fill="#212529"/>
</g>
</g>
</svg>
