<svg width="16" height="16" viewBox="0 0 16 16" fill="none" xmlns="http://www.w3.org/2000/svg">
<path id="Vector" d="M12.6667 0H3.33333C1.49267 0 0 1.49267 0 3.33333V12.6667C0 14.5073 1.49267 16 3.33333 16H12.6667C14.508 16 16 14.5073 16 12.6667V3.33333C16 1.49267 14.508 0 12.6667 0ZM10.6667 4.66667H9.384C8.974 4.66667 8.66667 4.83467 8.66667 5.25933V6H10.6667L10.508 8H8.66667V13.3333H6.66667V8H5.33333V6H6.66667V4.718C6.66667 3.37 7.376 2.66667 8.974 2.66667H10.6667V4.66667Z" fill="white"/>
</svg>
