<svg width="16" height="16" viewBox="0 0 16 16" fill="none" xmlns="http://www.w3.org/2000/svg">
<path id="Vector" d="M10.1553 3.65867C9.59333 3.63333 9.424 3.628 8 3.628C6.576 3.628 6.40733 3.63333 5.84533 3.65867C4.39867 3.72467 3.72467 4.41 3.65933 5.84467C3.63333 6.40733 3.62733 6.576 3.62733 8C3.62733 9.424 3.63333 9.59267 3.65867 10.1553C3.72467 11.5873 4.396 12.2753 5.84467 12.3413C6.40667 12.3667 6.576 12.3727 8 12.3727C9.42467 12.3727 9.59333 12.3673 10.1553 12.342C11.602 12.276 12.2753 11.5893 12.3413 10.156C12.3667 9.59333 12.372 9.42467 12.372 8.00067C12.372 6.57667 12.3667 6.408 12.3413 5.846C12.2753 4.41067 11.6007 3.72467 10.1553 3.65867ZM8 10.7387C6.48733 10.7387 5.26133 9.51267 5.26133 8C5.26133 6.48733 6.488 5.26133 8 5.26133C9.512 5.26133 10.7387 6.48733 10.7387 8C10.7387 9.51267 9.51267 10.7387 8 10.7387ZM10.8473 5.79333C10.494 5.79333 10.2073 5.50667 10.2073 5.15333C10.2073 4.8 10.494 4.51333 10.8473 4.51333C11.2007 4.51333 11.4873 4.8 11.4873 5.15333C11.4873 5.50667 11.2007 5.79333 10.8473 5.79333ZM9.778 8C9.778 8.982 8.982 9.778 8 9.778C7.018 9.778 6.222 8.982 6.222 8C6.222 7.018 7.018 6.222 8 6.222C8.982 6.222 9.778 7.018 9.778 8ZM12.6667 0H3.33333C1.49267 0 0 1.49267 0 3.33333V12.6667C0 14.5073 1.49267 16 3.33333 16H12.6667C14.508 16 16 14.5073 16 12.6667V3.33333C16 1.49267 14.508 0 12.6667 0ZM13.3013 10.1987C13.2133 12.138 12.134 13.2127 10.1993 13.3013C9.63 13.3273 9.44867 13.3333 8 13.3333C6.55133 13.3333 6.37067 13.3273 5.80133 13.3013C3.86267 13.2127 2.788 12.136 2.69867 10.1987C2.67267 9.63 2.66667 9.44867 2.66667 8C2.66667 6.552 2.67267 6.37 2.69867 5.80133C2.788 3.86267 3.864 2.78733 5.80133 2.69933C6.37067 2.67267 6.55133 2.66667 8 2.66667C9.44867 2.66667 9.63 2.67267 10.1993 2.69867C12.138 2.78733 13.2147 3.866 13.3013 5.80067C13.3273 6.37 13.3333 6.552 13.3333 8C13.3333 9.44867 13.3273 9.63 13.3013 10.1987Z" fill="white"/>
</svg>
