<svg width="16" height="16" viewBox="0 0 16 16" fill="none" xmlns="http://www.w3.org/2000/svg">
<path id="Vector" d="M6.66667 6.222L10.222 7.99667L6.66667 9.778V6.222ZM16 3.33333V12.6667C16 14.5073 14.508 16 12.6667 16H3.33333C1.49267 16 0 14.5073 0 12.6667V3.33333C0 1.49267 1.49267 0 3.33333 0H12.6667C14.508 0 16 1.49267 16 3.33333ZM13.3333 8C13.32 5.25133 13.118 4.2 11.3847 4.082C9.78267 3.97267 6.21533 3.97333 4.616 4.082C2.884 4.2 2.68 5.24667 2.66667 8C2.68 10.7487 2.882 11.8 4.61533 11.918C6.21467 12.0267 9.782 12.0273 11.384 11.918C13.116 11.8 13.32 10.7533 13.3333 8Z" fill="white"/>
</svg>
