<svg width="16" height="16" viewBox="0 0 16 16" fill="none" xmlns="http://www.w3.org/2000/svg">
<path id="Vector" fill-rule="evenodd" clip-rule="evenodd" d="M1.88547 0.510659C2.06045 0.335947 2.27055 0.200417 2.50187 0.113049C2.73318 0.0256803 2.98043 -0.0115307 3.22721 0.0038815C3.47399 0.0192937 3.71469 0.0869772 3.93333 0.202447C4.15198 0.317916 4.34359 0.478535 4.49547 0.673659L6.29047 2.97966C6.61947 3.40266 6.73547 3.95366 6.60547 4.47366L6.05847 6.66366C6.03019 6.77709 6.03172 6.8959 6.06291 7.00857C6.0941 7.12123 6.15388 7.22392 6.23647 7.30666L8.69347 9.76366C8.77631 9.84641 8.87916 9.9063 8.99202 9.9375C9.10488 9.96869 9.22389 9.97012 9.33747 9.94166L11.5265 9.39466C11.7831 9.3305 12.0509 9.32551 12.3098 9.38008C12.5686 9.43466 12.8116 9.54735 13.0205 9.70966L15.3265 11.5037C16.1555 12.1487 16.2315 13.3737 15.4895 14.1147L14.4555 15.1487C13.7155 15.8887 12.6095 16.2137 11.5785 15.8507C8.93965 14.9222 6.54374 13.4115 4.56847 11.4307C2.58776 9.45567 1.07708 7.06012 0.148471 4.42166C-0.213529 3.39166 0.111471 2.28466 0.851471 1.54466L1.88547 0.510659Z" fill="#F8F9FA"/>
</svg>
